<?xml version="1.0" encoding="UTF-8"?>
<svg id="Calque_1" xmlns="http://www.w3.org/2000/svg" version="1.1" viewBox="0 0 200 38.9">
  <!-- Generator: Adobe Illustrator 29.5.1, SVG Export Plug-In . SVG Version: 2.1.0 Build 141)  -->
  <defs>
    <style>
      .st0 {
        fill: #fff;
      }
    </style>
  </defs>
  <path class="st0" d="M32.8.7l-14.2,37h-3.9L.5.7h4.3l12.1,31.7L28.7.8l4.1-.1Z"/>
  <path class="st0" d="M56.7,13.6c2,2.7,2.9,6.4,2.8,10.9h-20.2c0,3.3.8,5.9,2.3,7.6,1.6,1.8,3.8,2.7,6.7,2.7,3.7,0,6.9-.8,9.5-2.4v4.1c-2.7,1.3-5.9,1.9-9.7,1.9-4,0-7.2-1.2-9.4-3.7-2.3-2.5-3.4-6.1-3.4-10.9s1.1-8.2,3.2-10.7c2.1-2.4,5.1-3.6,8.9-3.6,4.2,0,7.3,1.4,9.3,4.1ZM41.9,14.9c-1.3,1.1-2,3.1-2.4,6h15.8c-.2-2.6-.9-4.5-2.2-5.8s-3.2-1.9-5.7-1.9-4.3.5-5.5,1.7h0Z"/>
  <path class="st0" d="M79.8,9.5c3.9,0,6.7.8,8.4,2.5,1.7,1.7,2.6,4.2,2.6,7.6v18h-4v-18c0-4.4-2.5-6.5-7.4-6.5-2.5,0-4.9.4-7.3,1.1v23.4h-4V12.2c3.6-1.8,7.6-2.7,11.7-2.7Z"/>
  <path class="st0" d="M104.4,36.2c-1.3-1.2-1.9-3-1.9-5.3V13.7h-4.8v-3.7h4.8V2.2h4v7.8h7.1v3.6h-7.1v16c0,1.6.3,2.8.8,3.5.5.7,1.5,1.1,2.9,1.1,1.2,0,2.4-.2,3.5-.7v3.8c-.6.2-1.3.4-2,.5s-1.5.2-2.2.2c-2.1.1-3.8-.5-5.1-1.8Z"/>
  <path class="st0" d="M125,35.6c-2-1.9-3-4.6-3-8.1V10h4v16.6c0,2.8.6,4.9,1.8,6.2,1.2,1.3,3.1,2,5.8,2s4.5-.7,5.7-2,1.9-3.4,1.9-6.2V10h4v17.5c0,3.5-1,6.2-3,8.1-2,1.9-4.9,2.9-8.6,2.9s-6.6-1-8.6-2.9Z"/>
  <path class="st0" d="M155.1,12.2c1.8-.7,3.7-1.3,5.6-1.8,2.3-.6,4.8-.9,7.2-.9.6,0,1.2.2,1.8.3v3.5c-.9-.1-1.8-.2-2.7-.2-1.1,0-2.3.1-3.4.2-1,.1-2.5.4-4.5.7v23.5h-4V12.2h0Z"/>
  <path class="st0" d="M195.1,13.6c2,2.7,2.9,6.4,2.8,10.9h-20.2c0,3.3.8,5.9,2.3,7.6,1.6,1.8,3.8,2.7,6.6,2.7,3.7,0,6.9-.8,9.5-2.4v4.1c-2.7,1.3-5.9,1.9-9.7,1.9-4,0-7.2-1.2-9.4-3.7-2.3-2.5-3.4-6.1-3.4-10.9s1.1-8.2,3.2-10.7c2.1-2.4,5.1-3.6,8.9-3.6,4.4,0,7.5,1.4,9.4,4.1ZM180.4,14.9c-1.3,1.1-2,3.1-2.4,6h15.8c-.2-2.6-.9-4.5-2.2-5.8s-3.2-1.9-5.7-1.9-4.3.5-5.5,1.7h0Z"/>
</svg>