<?xml version="1.0" encoding="UTF-8"?>
<!-- Generator: Adobe Illustrator 27.8.1, SVG Export Plug-In . SVG Version: 6.00 Build 0)  -->
<svg xmlns="http://www.w3.org/2000/svg" xmlns:xlink="http://www.w3.org/1999/xlink" version="1.1" id="Calque_1" x="0px" y="0px" viewBox="0 0 200 38.9" style="enable-background:new 0 0 200 38.9;" xml:space="preserve">
<style type="text/css">
	.st0{fill:#231E1F;}
</style>
<path class="st0" d="M32.8,0.7l-14.2,37h-3.9L0.5,0.7h4.3l12.1,31.7L28.7,0.8L32.8,0.7z"></path>
<path class="st0" d="M56.7,13.6c2,2.7,2.9,6.4,2.8,10.9H39.3c0,3.3,0.8,5.9,2.3,7.6c1.6,1.8,3.8,2.7,6.7,2.7c3.7,0,6.9-0.8,9.5-2.4  v4.1c-2.7,1.3-5.9,1.9-9.7,1.9c-4,0-7.2-1.2-9.4-3.7c-2.3-2.5-3.4-6.1-3.4-10.9c0-4.7,1.1-8.2,3.2-10.7c2.1-2.4,5.1-3.6,8.9-3.6  C51.6,9.5,54.7,10.9,56.7,13.6z M41.9,14.9c-1.3,1.1-2,3.1-2.4,6h15.8c-0.2-2.6-0.9-4.5-2.2-5.8c-1.3-1.3-3.2-1.9-5.7-1.9  C45,13.2,43.1,13.7,41.9,14.9L41.9,14.9z"></path>
<path class="st0" d="M79.8,9.5c3.9,0,6.7,0.8,8.4,2.5c1.7,1.7,2.6,4.2,2.6,7.6v18h-4v-18c0-4.4-2.5-6.5-7.4-6.5  c-2.5,0-4.9,0.4-7.3,1.1v23.4h-4V12.2C71.7,10.4,75.7,9.5,79.8,9.5z"></path>
<path class="st0" d="M104.4,36.2c-1.3-1.2-1.9-3-1.9-5.3V13.7h-4.8V10h4.8V2.2h4V10h7.1v3.6h-7.1v16c0,1.6,0.3,2.8,0.8,3.5  c0.5,0.7,1.5,1.1,2.9,1.1c1.2,0,2.4-0.2,3.5-0.7v3.8c-0.6,0.2-1.3,0.4-2,0.5c-0.7,0.1-1.5,0.2-2.2,0.2  C107.4,38.1,105.7,37.5,104.4,36.2z"></path>
<path class="st0" d="M125,35.6c-2-1.9-3-4.6-3-8.1V10h4v16.6c0,2.8,0.6,4.9,1.8,6.2c1.2,1.3,3.1,2,5.8,2c2.6,0,4.5-0.7,5.7-2  c1.2-1.3,1.9-3.4,1.9-6.2V10h4v17.5c0,3.5-1,6.2-3,8.1c-2,1.9-4.9,2.9-8.6,2.9C129.8,38.5,127,37.5,125,35.6z"></path>
<path class="st0" d="M155.1,12.2c1.8-0.7,3.7-1.3,5.6-1.8c2.3-0.6,4.8-0.9,7.2-0.9c0.6,0,1.2,0.2,1.8,0.3v3.5  c-0.9-0.1-1.8-0.2-2.7-0.2c-1.1,0-2.3,0.1-3.4,0.2c-1,0.1-2.5,0.4-4.5,0.7v23.5h-4V12.2z"></path>
<path class="st0" d="M195.1,13.6c2,2.7,2.9,6.4,2.8,10.9h-20.2c0,3.3,0.8,5.9,2.3,7.6c1.6,1.8,3.8,2.7,6.6,2.7  c3.7,0,6.9-0.8,9.5-2.4v4.1c-2.7,1.3-5.9,1.9-9.7,1.9c-4,0-7.2-1.2-9.4-3.7c-2.3-2.5-3.4-6.1-3.4-10.9c0-4.7,1.1-8.2,3.2-10.7  c2.1-2.4,5.1-3.6,8.9-3.6C190.1,9.5,193.2,10.9,195.1,13.6z M180.4,14.9c-1.3,1.1-2,3.1-2.4,6h15.8c-0.2-2.6-0.9-4.5-2.2-5.8  s-3.2-1.9-5.7-1.9C183.5,13.2,181.6,13.7,180.4,14.9L180.4,14.9z"></path>
</svg>
